REM DIRINDEX 1\2\6,1\2\7,1\2\8,1\2\9,1\3\10,1\3\11,1\4\12,1\4\13,1\4\14,1\5\15,1\5\16,1\5\17
REM DIRNAME folder01,folder02,folder03,folder04,folder05,folder06,folder07,folder08,folder09,folder10,folder11,folder12,folder13,folder14,folder15,folder16,folder17
TITLE ""
FILE "1900_3_107 sec19_1818_1836.mp3" MP3
  TRACK 01 AUDIO
    TITLE "0:"
    INDEX 01 00:00:00
  TRACK 02 AUDIO
    TITLE "17:cjc020_9622"
    INDEX 01 00:00:15
  TRACK 03 AUDIO
    TITLE "0:"
    INDEX 01 00:01:38
  TRACK 04 AUDIO
    TITLE "16:cjc020_9623"
    INDEX 01 00:01:40
  TRACK 05 AUDIO
    TITLE "0:"
    INDEX 01 00:02:43
  TRACK 06 AUDIO
    TITLE "17:cjc020_9624"
    INDEX 01 00:03:29
  TRACK 07 AUDIO
    TITLE "0:"
    INDEX 01 00:04:38
  TRACK 08 AUDIO
    TITLE "16:cjc020_9625"
    INDEX 01 00:04:42
  TRACK 09 AUDIO
    TITLE "0:"
    INDEX 01 00:05:46
  TRACK 10 AUDIO
    TITLE "17:cjc020_9626"
    INDEX 01 00:06:31
  TRACK 11 AUDIO
    TITLE "0:"
    INDEX 01 00:08:38
  TRACK 12 AUDIO
    TITLE "16:cjc020_9627"
    INDEX 01 00:08:40
  TRACK 13 AUDIO
    TITLE "0:"
    INDEX 01 00:09:57
  TRACK 14 AUDIO
    TITLE "17:cjc020_9628"
    INDEX 01 00:10:41
  TRACK 15 AUDIO
    TITLE "0:"
    INDEX 01 00:12:01
  TRACK 16 AUDIO
    TITLE "16:cjc020_9629"
    INDEX 01 00:12:03
  TRACK 17 AUDIO
    TITLE "0:"
    INDEX 01 00:13:18
  TRACK 18 AUDIO
    TITLE "17:cjc020_9630"
    INDEX 01 00:13:71
  TRACK 19 AUDIO
    TITLE "0:"
    INDEX 01 00:15:15
  TRACK 20 AUDIO
    TITLE "16:cjc020_9631"
    INDEX 01 00:15:19
  TRACK 21 AUDIO
    TITLE "0:"
    INDEX 01 00:16:46
  TRACK 22 AUDIO
    TITLE "17:cjc020_9632"
    INDEX 01 00:17:31
  TRACK 23 AUDIO
    TITLE "0:"
    INDEX 01 00:18:62
  TRACK 24 AUDIO
    TITLE "16:cjc020_9633"
    INDEX 01 00:18:66
  TRACK 25 AUDIO
    TITLE "0:"
    INDEX 01 00:19:65
  TRACK 26 AUDIO
    TITLE "17:cjc020_9634"
    INDEX 01 00:20:49
  TRACK 27 AUDIO
    TITLE "0:"
    INDEX 01 00:21:68
  TRACK 28 AUDIO
    TITLE "16:cjc020_9635"
    INDEX 01 00:21:74
  TRACK 29 AUDIO
    TITLE "0:"
    INDEX 01 00:23:20
  TRACK 30 AUDIO
    TITLE "17:cjc020_9636"
    INDEX 01 00:24:00
  TRACK 31 AUDIO
    TITLE "0:"
    INDEX 01 00:25:31
  TRACK 32 AUDIO
    TITLE "16:cjc020_9637"
    INDEX 01 00:25:33
  TRACK 33 AUDIO
    TITLE "0:"
    INDEX 01 00:26:42
  TRACK 34 AUDIO
    TITLE "17:cjc020_9638"
    INDEX 01 00:27:24
  TRACK 35 AUDIO
    TITLE "0:"
    INDEX 01 00:28:41
  TRACK 36 AUDIO
    TITLE "16:cjc020_9639"
    INDEX 01 00:28:49
  TRACK 37 AUDIO
    TITLE "0:"
    INDEX 01 00:29:54
  TRACK 38 AUDIO
    TITLE "17:cjc020_9640"
    INDEX 01 00:30:36
  TRACK 39 AUDIO
    TITLE "0:"
    INDEX 01 00:31:47
  TRACK 40 AUDIO
    TITLE "16:cjc020_9641"
    INDEX 01 00:31:49
  TRACK 41 AUDIO
    TITLE "0:"
    INDEX 01 00:32:56
  TRACK 42 AUDIO
    TITLE "17:cjc020_9642"
    INDEX 01 00:33:40
  TRACK 43 AUDIO
    TITLE "0:"
    INDEX 01 00:34:63
  TRACK 44 AUDIO
    TITLE "16:cjc020_9643"
    INDEX 01 00:34:67
  TRACK 45 AUDIO
    TITLE "0:"
    INDEX 01 00:36:03
  TRACK 46 AUDIO
    TITLE "17:cjc020_9644"
    INDEX 01 00:36:64
  TRACK 47 AUDIO
    TITLE "0:"
    INDEX 01 00:38:10
  TRACK 48 AUDIO
    TITLE "16:cjc020_9645"
    INDEX 01 00:38:12
  TRACK 49 AUDIO
    TITLE "0:"
    INDEX 01 00:39:13
  TRACK 50 AUDIO
    TITLE "17:cjc020_9646"
    INDEX 01 00:39:70
  TRACK 51 AUDIO
    TITLE "0:"
    INDEX 01 00:41:24
  TRACK 52 AUDIO
    TITLE "16:cjc020_9647"
    INDEX 01 00:41:32
  TRACK 53 AUDIO
    TITLE "0:"
    INDEX 01 00:42:47
  TRACK 54 AUDIO
    TITLE "17:cjc020_9648"
    INDEX 01 00:43:33
  TRACK 55 AUDIO
    TITLE "0:"
    INDEX 01 00:44:58
  TRACK 56 AUDIO
    TITLE "16:cjc020_9649"
    INDEX 01 00:44:63
  TRACK 57 AUDIO
    TITLE "0:"
    INDEX 01 00:45:73
  TRACK 58 AUDIO
    TITLE "17:cjc020_9650"
    INDEX 01 00:46:58
  TRACK 59 AUDIO
    TITLE "0:"
    INDEX 01 00:48:06
  TRACK 60 AUDIO
    TITLE "16:cjc020_9651"
    INDEX 01 00:48:14
  TRACK 61 AUDIO
    TITLE "0:"
    INDEX 01 00:49:23
  TRACK 62 AUDIO
    TITLE "17:cjc020_9652"
    INDEX 01 00:50:07
  TRACK 63 AUDIO
    TITLE "0:"
    INDEX 01 00:52:71
  TRACK 64 AUDIO
    TITLE "16:cjc020_9653"
    INDEX 01 00:53:00
  TRACK 65 AUDIO
    TITLE "0:"
    INDEX 01 00:54:09
  TRACK 66 AUDIO
    TITLE "17:cjc020_9654"
    INDEX 01 00:54:66
  TRACK 67 AUDIO
    TITLE "0:"
    INDEX 01 00:56:14
  TRACK 68 AUDIO
    TITLE "16:cjc020_9655"
    INDEX 01 00:56:22
  TRACK 69 AUDIO
    TITLE "0:"
    INDEX 01 00:57:39
  TRACK 70 AUDIO
    TITLE "17:cjc020_9656"
    INDEX 01 00:58:26
  TRACK 71 AUDIO
    TITLE "0:"
    INDEX 01 00:59:36
  TRACK 72 AUDIO
    TITLE "16:cjc020_9657"
    INDEX 01 00:59:43
  TRACK 73 AUDIO
    TITLE "0:"
    INDEX 01 01:00:47
  TRACK 74 AUDIO
    TITLE "17:cjc020_9658"
    INDEX 01 01:01:34
  TRACK 75 AUDIO
    TITLE "0:"
    INDEX 01 01:02:40
  TRACK 76 AUDIO
    TITLE "16:cjc020_9659"
    INDEX 01 01:02:44
  TRACK 77 AUDIO
    TITLE "0:"
    INDEX 01 01:03:57
